<?xml version="1.0" encoding="UTF-8" standalone="no"?>
<!-- Created with Inkscape (http://www.inkscape.org/) -->

<svg
   width="1024"
   height="1024"
   viewBox="0 0 270.93333 270.93333"
   version="1.1"
   id="svg1"
   inkscape:export-filename="/Users/elia/github/prose/assets/app-icon.png"
   inkscape:export-xdpi="96"
   inkscape:export-ydpi="96"
   inkscape:version="1.4.4 (dcaf3e7, 2026-05-05)"
   sodipodi:docname="app-icon.svg"
   xmlns:inkscape="http://www.inkscape.org/namespaces/inkscape"
   xmlns:sodipodi="http://sodipodi.sourceforge.net/DTD/sodipodi-0.dtd"
   xmlns:xlink="http://www.w3.org/1999/xlink"
   xmlns="http://www.w3.org/2000/svg"
   xmlns:svg="http://www.w3.org/2000/svg">
  <sodipodi:namedview
     id="namedview1"
     pagecolor="#ffffff"
     bordercolor="#000000"
     borderopacity="0.25"
     inkscape:showpageshadow="2"
     inkscape:pageopacity="0.0"
     inkscape:pagecheckerboard="0"
     inkscape:deskcolor="#d1d1d1"
     inkscape:document-units="mm"
     inkscape:zoom="0.10726936"
     inkscape:cx="1044.1006"
     inkscape:cy="1705.9858"
     inkscape:window-width="1512"
     inkscape:window-height="921"
     inkscape:window-x="0"
     inkscape:window-y="33"
     inkscape:window-maximized="0"
     inkscape:current-layer="g1"
     showgrid="false" />
  <defs
     id="defs1">
    <linearGradient
       id="linearGradient8"
       inkscape:collect="always">
      <stop
         style="stop-color:#9f6800;stop-opacity:1;"
         offset="0"
         id="stop7" />
      <stop
         style="stop-color:#3a2c00;stop-opacity:1;"
         offset="1"
         id="stop8" />
    </linearGradient>
    <linearGradient
       id="linearGradient2"
       inkscape:collect="always">
      <stop
         style="stop-color:#ff9e01;stop-opacity:1;"
         offset="0"
         id="stop1" />
      <stop
         style="stop-color:#b17f00;stop-opacity:1;"
         offset="1"
         id="stop2" />
    </linearGradient>
    <linearGradient
       id="linearGradient5"
       inkscape:collect="always">
      <stop
         style="stop-color:#905d00;stop-opacity:1;"
         offset="0"
         id="stop5" />
      <stop
         style="stop-color:#3a2c00;stop-opacity:1;"
         offset="1"
         id="stop6" />
    </linearGradient>
    <linearGradient
       inkscape:collect="always"
       xlink:href="#linearGradient2"
       id="linearGradient6"
       x1="135.46666"
       y1="21.906754"
       x2="135.46666"
       y2="249.02657"
       gradientUnits="userSpaceOnUse"
       gradientTransform="translate(3.5212126,346.25257)" />
    <linearGradient
       inkscape:collect="always"
       xlink:href="#linearGradient5"
       id="linearGradient1"
       gradientUnits="userSpaceOnUse"
       x1="135.46666"
       y1="21.906754"
       x2="135.46666"
       y2="249.02657"
       gradientTransform="translate(304.85748,234.09388)" />
    <linearGradient
       inkscape:collect="always"
       xlink:href="#linearGradient8"
       id="linearGradient3"
       gradientUnits="userSpaceOnUse"
       gradientTransform="matrix(1.1929092,0,0,1.1929091,-26.132754,-26.132777)"
       x1="135.46666"
       y1="21.906754"
       x2="135.46666"
       y2="249.02657" />
  </defs>
  <g
     inkscape:label="Layer 1"
     inkscape:groupmode="layer"
     id="layer1">
    <text
       xml:space="preserve"
       style="font-size:66.5388px;font-family:'.Apple SD Gothic NeoI';-inkscape-font-specification:'.Apple SD Gothic NeoI';writing-mode:lr-tb;direction:ltr;fill:#000000;stroke-width:5.5449"
       x="-192.47253"
       y="160.80266"
       id="text1"><tspan
         sodipodi:role="line"
         id="tspan1"
         style="font-style:normal;font-variant:normal;font-weight:normal;font-stretch:normal;font-size:66.5388px;font-family:Georgia;-inkscape-font-specification:'Georgia, Normal';font-variant-ligatures:normal;font-variant-caps:normal;font-variant-numeric:normal;font-variant-east-asian:normal;stroke-width:5.5449"
         x="-192.47253"
         y="160.80266">Prose</tspan></text>
    <g
       id="g1">
      <rect
         style="opacity:1;fill:url(#linearGradient6);fill-opacity:1;stroke-width:0;stroke-dasharray:none"
         id="rect6"
         width="227.11983"
         height="227.11983"
         x="25.427959"
         y="368.15933"
         ry="71.525505" />
      <path
         d="m 108.29116,421.49964 -1.27325,5.60185 c 1.69753,0.11317 3.56483,0.3395 5.60185,0.679 2.03702,0.3395 3.96098,0.84882 5.77168,1.52783 1.24485,0.50926 2.09349,1.24459 2.54618,2.20652 0.45267,0.96193 0.679,2.03723 0.679,3.2255 0,0.56584 -0.0568,1.15999 -0.16984,1.78242 -0.0566,0.62242 -0.14141,1.18808 -0.25458,1.69734 59.76521,48.866 53.00344,78.12001 -20.2853,87.76202 -0.39609,1.98045 -1.131739,3.73473 -2.206837,5.2625 -1.018513,1.47119 -2.546152,2.60284 -4.583179,3.39502 -1.188267,0.45268 -3.084054,0.8205 -5.686923,1.10342 -2.602869,0.28291 -4.611659,0.48075 -6.026261,0.59392 l -1.272925,5.60184 h 51.689535 l 1.27323,-5.60184 c -2.03701,-0.0566 -4.35697,-0.25442 -6.95984,-0.59392 -2.54628,-0.33951 -4.24391,-0.70733 -5.09267,-1.10342 -1.35802,-0.56584 -2.26334,-1.32999 -2.71601,-2.29191 -0.45267,-0.96193 -0.67899,-2.06509 -0.67899,-3.30995 0,-0.39608 0.028,-0.87722 0.0847,-1.44308 0.0566,-0.56583 0.14142,-1.10333 0.25459,-1.61258 l 8.65751,-37.17558 h 14.68345 c 6.73352,0 13.18436,-0.93381 19.35204,-2.80109 6.16765,-1.92385 11.74106,-4.75312 16.72046,-8.48768 4.75306,-3.5648 8.62914,-8.03471 11.6281,-13.4102 3.05555,-5.3755 4.58317,-11.4867 4.58317,-18.33337 0,-7.52569 -3.0556,-13.43873 -9.16668,-17.73912 -6.0545,-4.35698 -13.91967,-6.53544 -23.59555,-6.53544 z m 33.27141,6.53544 h 11.03386 c 4.01748,0 7.35606,0.53749 10.01551,1.61258 2.65946,1.01852 4.8379,2.43315 6.53544,4.24385 1.69752,1.86727 2.88583,3.96089 3.56483,6.28084 0.73561,2.31995 1.10343,4.78139 1.10343,7.38426 0,3.28188 -0.48117,6.81832 -1.44309,10.60946 -0.96194,3.73455 -2.6029,7.27098 -4.92285,10.60944 -2.99895,4.35697 -6.87504,7.6389 -11.62809,9.84567 -4.75307,2.1502 -10.41129,3.22552 -16.97505,3.22552 h -9.5911 z"
         style="font-style:italic;font-size:276.625px;font-family:Georgia;-inkscape-font-specification:'Georgia, Italic';fill:#fadf40;fill-opacity:1;stroke:#000000;stroke-width:0.004343;stroke-dasharray:none;stroke-opacity:1"
         id="path6"
         sodipodi:nodetypes="ccscsscccccsccccccsssccscscscsccscccscccscc" />
      <rect
         style="fill:url(#linearGradient1);fill-opacity:1;stroke-width:0;stroke-dasharray:none"
         id="rect6-4"
         width="227.11983"
         height="227.11983"
         x="326.76422"
         y="256.00064"
         ry="71.525505"
         inkscape:transform-center-x="188.92397"
         inkscape:transform-center-y="-357.90597" />
      <path
         d="m 409.62743,309.34095 -1.27325,5.60185 c 1.69753,0.11317 3.56483,0.3395 5.60185,0.679 2.03702,0.33951 3.96098,0.84883 5.77168,1.52784 1.24485,0.50925 2.09349,1.24458 2.54618,2.20651 0.45267,0.96193 0.679,2.03723 0.679,3.2255 0,0.56584 -0.0568,1.15999 -0.16984,1.78242 -0.0566,0.62242 -0.14141,1.18808 -0.25458,1.69734 59.76521,48.86601 53.00344,78.12002 -20.2853,87.76203 -0.39609,1.98045 -1.13174,3.73473 -2.20684,5.2625 -1.01851,1.47119 -2.54615,2.60284 -4.58318,3.39502 -1.18826,0.45268 -3.08405,0.8205 -5.68692,1.10342 -2.60287,0.28291 -4.61166,0.48075 -6.02626,0.59392 l -1.27292,5.60184 h 51.68953 l 1.27323,-5.60184 c -2.03701,-0.0566 -4.35697,-0.25442 -6.95984,-0.59392 -2.54628,-0.33951 -4.24391,-0.70733 -5.09267,-1.10342 -1.35802,-0.56584 -2.26334,-1.32999 -2.71601,-2.29191 -0.45267,-0.96193 -0.67899,-2.06509 -0.67899,-3.30995 0,-0.39608 0.028,-0.87722 0.0847,-1.44308 0.0566,-0.56583 0.14142,-1.10333 0.25459,-1.61258 l 8.65751,-37.17558 h 14.68345 c 6.73352,0 13.18436,-0.93381 19.35204,-2.80109 6.16765,-1.92385 11.74106,-4.75312 16.72046,-8.48769 4.75306,-3.5648 8.62914,-8.03471 11.6281,-13.4102 3.05555,-5.3755 4.58317,-11.4867 4.58317,-18.33337 0,-7.52569 -3.0556,-13.43873 -9.16668,-17.73912 -6.0545,-4.35698 -13.91967,-6.53544 -23.59555,-6.53544 z m 33.27141,6.53544 h 11.03386 c 4.01748,0 7.35606,0.53749 10.01551,1.61259 2.65946,1.01851 4.8379,2.43314 6.53544,4.24384 1.69752,1.86727 2.88583,3.96089 3.56483,6.28084 0.73561,2.31995 1.10343,4.78139 1.10343,7.38426 0,3.28188 -0.48117,6.81832 -1.44309,10.60946 -0.96194,3.73455 -2.6029,7.27098 -4.92285,10.60944 -2.99895,4.35697 -6.87504,7.6389 -11.62809,9.84567 -4.75307,2.15021 -10.41129,3.22553 -16.97505,3.22553 h -9.5911 z"
         style="font-style:italic;font-size:276.625px;font-family:Georgia;-inkscape-font-specification:'Georgia, Italic';fill:#efd74f;fill-opacity:1;stroke:#000000;stroke-width:0.004343;stroke-dasharray:none;stroke-opacity:1"
         id="path6-8"
         sodipodi:nodetypes="ccscsscccccsccccccsssccscscscsccscccscccscc"
         inkscape:transform-center-x="190.04143"
         inkscape:transform-center-y="-357.90596" />
      <rect
         style="fill:url(#linearGradient3);fill-opacity:1;stroke-width:0;stroke-dasharray:none"
         id="rect6-4-0"
         width="270.93332"
         height="270.93335"
         x="-3.907985e-14"
         y="3.907985e-14"
         ry="0"
         inkscape:transform-center-x="225.36916"
         inkscape:transform-center-y="-426.94932" />
      <path
         d="m 102.54927,68.159765 -1.27325,5.60185 c 1.69753,0.11317 3.56483,0.3395 5.60185,0.679 2.03702,0.33951 3.96098,0.84883 5.77168,1.52784 1.24485,0.50925 2.09349,1.24458 2.54618,2.20651 0.45267,0.96193 0.679,2.03723 0.679,3.2255 0,0.56584 -0.0568,1.15999 -0.16984,1.78242 -0.0566,0.62242 -0.14141,1.18808 -0.25458,1.69734 59.76521,48.866015 53.00344,78.120025 -20.285298,87.762035 -0.39609,1.98045 -1.13174,3.73473 -2.20684,5.2625 -1.01851,1.47119 -2.54615,2.60284 -4.58318,3.39502 -1.18826,0.45268 -3.08405,0.8205 -5.68692,1.10342 -2.60287,0.28291 -4.61166,0.48075 -6.02626,0.59392 l -1.27292,5.60184 h 51.689528 l 1.27323,-5.60184 c -2.03701,-0.0566 -4.35697,-0.25442 -6.95984,-0.59392 -2.54628,-0.33951 -4.24391,-0.70733 -5.09267,-1.10342 -1.35802,-0.56584 -2.26334,-1.32999 -2.71601,-2.29191 -0.45267,-0.96193 -0.67899,-2.06509 -0.67899,-3.30995 0,-0.39608 0.028,-0.87722 0.0847,-1.44308 0.0566,-0.56583 0.14142,-1.10333 0.25459,-1.61258 l 8.65751,-37.17558 h 14.68345 c 6.73352,0 13.18436,-0.93381 19.35204,-2.80109 6.16765,-1.92385 11.74106,-4.75312 16.72046,-8.48769 4.75306,-3.5648 8.62914,-8.03471 11.6281,-13.4102 3.05555,-5.3755 4.58317,-11.486705 4.58317,-18.333375 0,-7.52569 -3.0556,-13.43873 -9.16668,-17.73912 -6.0545,-4.35698 -13.91967,-6.53544 -23.59555,-6.53544 z m 33.27141,6.53544 h 11.03386 c 4.01748,0 7.35606,0.53749 10.01551,1.61259 2.65946,1.01851 4.8379,2.43314 6.53544,4.24384 1.69752,1.86727 2.88583,3.96089 3.56483,6.28084 0.73561,2.31995 1.10343,4.78139 1.10343,7.38426 0,3.28188 -0.48117,6.818325 -1.44309,10.609465 -0.96194,3.73455 -2.6029,7.27098 -4.92285,10.60944 -2.99895,4.35697 -6.87504,7.6389 -11.62809,9.84567 -4.75307,2.15021 -10.41129,3.22553 -16.97505,3.22553 h -9.5911 z"
         style="font-style:italic;font-size:276.625px;font-family:Georgia;-inkscape-font-specification:'Georgia, Italic';fill:#efd74f;fill-opacity:1;stroke:#000000;stroke-width:0.004343;stroke-dasharray:none;stroke-opacity:1"
         id="path6-8-4"
         sodipodi:nodetypes="ccscsscccccsccccccsssccscscscsccscccscccscc"
         inkscape:transform-center-x="190.04143"
         inkscape:transform-center-y="-357.90596" />
    </g>
    <g
       id="g2"
       transform="translate(309.80831)">
      <rect
         style="fill:#402c00;fill-opacity:1;stroke-width:0.221796"
         id="rect1"
         width="227.11983"
         height="227.11983"
         x="21.906746"
         y="21.906746"
         ry="71.525505" />
      <path
         d="m 107.34976,80.499234 -1.1622,5.11327 c 1.54947,0.103298 3.25391,0.309887 5.11327,0.619781 1.85936,0.309894 3.61552,0.774793 5.26829,1.394582 1.13628,0.464841 1.91091,1.136034 2.32411,2.014066 0.41319,0.878034 0.61978,1.859554 0.61978,2.944185 0,0.516489 -0.0518,1.058823 -0.15502,1.626962 -0.0517,0.568139 -0.12908,1.084464 -0.23238,1.549305 l -18.51608,80.107695 c -0.36155,1.80772 -1.033035,3.409 -2.014366,4.80352 -0.929682,1.34288 -2.324085,2.37583 -4.183449,3.09892 -1.08463,0.4132 -2.815073,0.74894 -5.190928,1.00718 -2.375855,0.25824 -4.209444,0.43882 -5.500669,0.54212 l -1.161905,5.11327 h 47.181337 l 1.16219,-5.11327 c -1.85935,-0.0517 -3.97697,-0.23223 -6.35283,-0.54212 -2.3242,-0.3099 -3.87377,-0.64564 -4.6485,-1.00718 -1.23958,-0.51649 -2.06594,-1.21399 -2.47913,-2.09202 -0.41319,-0.87803 -0.61977,-1.88498 -0.61977,-3.02126 0,-0.36154 0.0256,-0.80072 0.0773,-1.31722 0.0517,-0.51648 0.12909,-1.0071 0.23239,-1.47194 l 7.90243,-33.93324 h 13.4028 c 6.14625,0 12.03447,-0.85237 17.66422,-2.55679 5.62973,-1.75606 10.71704,-4.33857 15.26215,-7.74741 4.33852,-3.25389 7.87654,-7.33395 10.61394,-12.24061 2.78905,-4.90666 4.18344,-10.48486 4.18344,-16.73439 0,-6.869323 -2.7891,-12.266648 -8.36719,-16.191974 -5.52645,-3.976975 -12.70564,-5.965432 -21.53762,-5.965432 z m 30.36958,5.965432 h 10.07152 c 3.66709,0 6.71449,0.490612 9.14199,1.471944 2.42751,0.929681 4.41596,2.220938 5.96544,3.873707 1.54947,1.704417 2.63414,3.615441 3.25392,5.73305 0.67145,2.117609 1.00719,4.364373 1.00719,6.740233 0,2.99564 -0.4392,6.22364 -1.31723,9.68413 -0.87804,3.40884 -2.37588,6.63683 -4.49349,9.68412 -2.73739,3.97697 -6.27542,6.97266 -10.61393,8.98696 -4.33852,1.96267 -9.50325,2.9442 -15.49454,2.9442 h -8.75459 z"
         style="font-style:italic;font-size:276.625px;font-family:Georgia;-inkscape-font-specification:'Georgia, Italic';fill:#efd74f;fill-opacity:1;stroke-width:13.2222"
         id="path1" />
    </g>
  </g>
</svg>
